<?xml version="1.0" encoding="UTF-8" standalone="no"?>
<svg
   xmlns:dc="http://purl.org/dc/elements/1.1/"
   xmlns:cc="http://creativecommons.org/ns#"
   xmlns:rdf="http://www.w3.org/1999/02/22-rdf-syntax-ns#"
   xmlns:svg="http://www.w3.org/2000/svg"
   xmlns="http://www.w3.org/2000/svg"
   xmlns:xlink="http://www.w3.org/1999/xlink"
   xmlns:sodipodi="http://sodipodi.sourceforge.net/DTD/sodipodi-0.dtd"
   xmlns:inkscape="http://www.inkscape.org/namespaces/inkscape"
   version="1.1"
   x="0px"
   y="0px"
   viewBox="0 0 1025 904"
   xml:space="preserve"
   id="svg70"
   sodipodi:docname="pgconfig.svg"
   width="1025"
   height="904"
   inkscape:version="1.0.2 (e86c870879, 2021-01-15)"><metadata
   id="metadata76"><rdf:RDF><cc:Work
       rdf:about=""><dc:format>image/svg+xml</dc:format><dc:type
         rdf:resource="http://purl.org/dc/dcmitype/StillImage" /><dc:title></dc:title></cc:Work></rdf:RDF></metadata><defs
   id="defs74" /><sodipodi:namedview
   pagecolor="#ffffff"
   bordercolor="#666666"
   borderopacity="1"
   objecttolerance="10"
   gridtolerance="10"
   guidetolerance="10"
   inkscape:pageopacity="0"
   inkscape:pageshadow="2"
   inkscape:window-width="3840"
   inkscape:window-height="2049"
   id="namedview72"
   showgrid="false"
   inkscape:zoom="0.69756098"
   inkscape:cx="512.5"
   inkscape:cy="512.5"
   inkscape:window-x="0"
   inkscape:window-y="0"
   inkscape:window-maximized="1"
   inkscape:current-layer="svg70" />
<g
   id="Camada_1"
   style="display:none">
	
		<image
   xlink:href="../../../Downloads/Ilustrac%CC%A7a%CC%83o_Sem_Ti%CC%81tulo.png"
   id="image2"
   transform="matrix(0.2635,0,0,0.2635,185.7208,39.5137)"
   height="3508"
   width="2480"
   style="display:inline;overflow:visible">
	</image>
</g>
<g
   id="fundo"
   transform="matrix(1.8309546,0,0,1.8309546,-364.97784,-595.11348)">
	<path
   style="fill:#336691"
   d="m 723.143,636.357 c -9.643,-11.571 7.071,-31.5 -16.714,-45.643 0,0 -4.5,-3.857 10.929,-26.357 4.195,-4.359 0.762,-20.178 -14.786,0 l -14.786,11.571 -46.286,19.286 -12.857,10.386 -14.786,3.758 -0.643,-24.429 9.643,-12.214 -11.857,-42.918 -8.357,-43.071 0.286,-41.297 -1.286,-43.714 c 0,0 -15.429,-70.714 -32.143,-54 0,0 -30.214,7.714 -68.143,52.714 0,0 -65.571,-2.571 -91.929,31.5 0,0 -68.786,-37.286 -135.643,-10.929 -66.857,26.357 -55.929,99.643 -55.929,99.643 0,0 23.144,88.714 64.287,129.214 l 58.5,61.714 c 0,0 54,41.143 75.214,21.214 0,0 19.286,-49.5 16.714,-52.714 -2.45,-3.062 35.355,6.711 38.941,7.643 0.028,1.076 0.108,2.895 0.273,5.857 0.643,11.571 -20.571,48.214 -20.571,48.214 0,0 -23.786,46.929 -28.929,47.571 -5.143,0.643 -7.071,15.429 16.714,8.357 l 38.571,-25.071 c 0,0 39.214,-41.143 40.5,-54 1.286,-12.857 7.071,16.071 7.071,16.071 0,0 16.714,43.714 46.286,43.714 0,0 34.071,9 63.643,-3.214 0,0 44.357,-19.286 52.071,-46.286 7.716,-26.998 45.645,-80.998 36.002,-92.57 z m -63.75,27.429 -4.929,6.857 -3.857,4.286 -2.786,0.536 -3.429,-2.143 -8.036,-6.199 -4.196,-6.457 15.73,-9.155 16.601,-2.123 2.143,6.107 z"
   id="path5" />
</g>
<g
   id="olhos"
   transform="matrix(1.8309546,0,0,1.8309546,-364.97784,-595.11348)">
	<path
   style="fill:#ffffff;stroke:#ffffff;stroke-width:2;stroke-miterlimit:10"
   d="m 432.25,560.286 c 0,0 8.786,-11.036 18.214,-2.893 0,0 -7.178,12.643 -18.214,2.893 z"
   id="path8" />
	<path
   style="fill:#ffffff;stroke:#ffffff;stroke-width:2;stroke-miterlimit:10"
   d="m 564.094,518.543 c 0,0 13.387,5.155 17.65,-6.813 -10e-4,0 -12.772,-7.386 -17.65,6.813 z"
   id="path10" />
</g>
<g
   id="chave_de_fenda"
   transform="matrix(1.8309546,0,0,1.8309546,-364.97784,-595.11348)">
	<path
   style="fill:#768591"
   d="m 616.304,473.998 c 0,0 20.75,22.796 31.679,13.796 0,0 7.661,-14.16 -12.268,-33.285 -0.022,-0.741 27.125,1.446 34.232,10.688 2.854,0.644 15.091,11.658 6.027,32.946 -1.486,10.373 -7.05,21.154 -6.492,24.499 1.383,8.276 6.755,32.876 6.755,32.876 l 3.192,16.874 2.502,11.162 -23.143,0.923 -3.075,-11.162 -7.221,-25.913 -5.786,-16.714 c 0,0 -3.214,-8.518 -7.071,-12.375 -4.943,-0.245 -30.67,-28.862 -19.331,-44.315 z"
   id="path13" />
	<path
   style="fill:#768591"
   d="m 673.487,640.247 c 0,0 15,-8.25 25.179,4.821 l 3.107,15.321 2.679,12.214 2.781,14.399 0.219,0.28 c 0.762,-0.355 8.804,33.529 11.996,36.503 0,0 19.821,13.098 7.393,34.313 0,0 -13.768,14.116 -30.054,2.652 0,0 -10.549,-10.895 -3.263,-26.967 -0.276,-0.145 -1.821,-13.924 -3.217,-24.183 l -8.354,-33.674 z"
   id="path15" />
	<g
   id="detalhes">
		<polygon
   style="fill:#ffffff;stroke:#ffffff;stroke-miterlimit:10"
   points="718.523,739.649 720.897,748.509 714.411,754.995 705.551,752.621 703.177,743.761 709.663,737.276 "
   id="polygon17" />
		<path
   style="fill:none;stroke:#ffffff;stroke-miterlimit:10"
   d="m 679.186,636.047 16.652,56.945 c 0.432,3.059 6.056,10.524 5.555,-1.028 -0.445,-10.281 -1.929,-14.786 -1.929,-14.786 0,0 -3.75,-13.833 -3.75,-15"
   id="path19" />
		<path
   style="fill:none;stroke:#ffffff;stroke-miterlimit:10"
   d="m 665.071,583.964 c 0.192,0.055 -6.487,-23.1 -6.429,-33.643 0.514,-8.752 3.427,-17.554 7.179,-1.393 2.829,12.186 8.464,35.036 8.464,35.036"
   id="path21" />
	</g>
</g>
<g
   id="linhas_brancas"
   transform="matrix(1.8309546,0,0,1.8309546,-364.97784,-595.11348)">
	<path
   style="fill:none;stroke:#ffffff;stroke-width:6;stroke-miterlimit:10"
   d="m 410.286,440.286 c -8.178,-11.426 -55.611,-35.895 -126,-21 -79.826,16.891 -62.506,118.214 -58.232,125.464 0.201,3.371 22.807,53.939 40.179,75.214 1.661,3.804 6.009,7.543 12.214,18.482 2.004,3.532 5.976,8.65 11.571,16.393 2.05,2.836 9.136,9.185 21.857,22.982 17.945,19.463 35.701,29.483 48.375,38.411 12.23,7.447 15.212,8.285 19.179,10.339 6.003,3.11 18.359,7.246 25.186,5.411 6.35,-1.707 9.596,-5.473 14.517,-20.893 16.081,-38.23 1.596,-16.728 6.422,-39.857 0,0 -13.52,-21.983 -13.125,-35.089 0.251,-8.318 -3.429,-24.857 -6.857,-32.571 0,0 -16.286,-29.143 -25.286,-48.429 0,0 -12.976,-39.663 13.714,-92.143 26.328,-51.769 68.269,-51.655 76.948,-53.757 6.145,-1.435 17.72,-1.949 30.637,-0.076 11.591,1.68 33.212,6.022 48.844,22.119 0,0 25.714,22.286 28.286,55.286 1.515,9.543 1.952,31.764 22.286,80.155 -0.027,0.062 7.654,26.201 15.429,5.665 0.004,0.083 9.478,-19.485 -12.429,-47.249 -0.659,-1.831 -12.285,-7.241 -3.161,-79.875 2.049,-3.384 -9.053,-89.958 -28.339,-93.375 -8.154,-1.445 -27.697,11.436 -43.179,25.554 -15.299,13.951 -26.714,30.352 -26.143,31.232"
   id="path25" />
	<path
   style="fill:none;stroke:#ffffff;stroke-width:6;stroke-miterlimit:10"
   d="M 476.714,684.143"
   id="path27" />
	<path
   style="fill:none;stroke:#ffffff;stroke-width:6;stroke-miterlimit:10"
   d="m 424.292,677.329 c 0,0 4.042,-8.29 13.851,-2.4 9.368,5.625 22.232,5.625 22.232,5.625 0.155,-0.57 14.862,-1.247 16.325,9.589 1.024,7.587 -2.121,18.473 -4.217,24.121 l -26.65,47.568 -19.288,25.517 c -7.132,5.511 -12.249,14.112 13.179,5.866 6.19,-2.007 19.445,-6.719 27.804,-12.938 7.515,-5.591 14.773,-12.622 16.07,-14.13 2.854,-3.529 22.885,-24.378 26.358,-37.058 1.767,-6.449 6.027,-10.205 7.313,-10.607 1.277,-0.361 5.434,-0.904 6.254,3.828 0.885,5.104 3.805,13.787 7.246,21.806 5.999,13.981 30.329,25.5 42.991,29.17 4.061,0.245 47.593,9.412 71.92,-8.047 21.241,-12.392 35.293,-33.329 37.502,-38.182 1.24,-2.725 8.46,-7.68 9.59,4.361 0.577,6.149 0.585,1.505 -0.5,9.456 -2.069,15.169 7.909,26.157 17.372,25.341 24.001,-2.07 22.395,-18.277 22.741,-17.036 -0.511,-0.268 1.764,-10.511 -10.125,-22.098 0,0 -4.432,-8.206 -6.188,-15.938 -2.006,-8.836 -8.379,-32.45 -7.286,-31.714 0,0 11.082,-23.307 11.786,-36.161 0.547,-9.992 4.518,-27.023 -19.147,-50.046 2.705,-3.133 -5.346,0.716 2.031,-6.847 7.605,-7.797 12.898,-21.555 13.722,-22.897 3.401,-8.977 3.992,-16.109 -9.945,-2.576 -4.392,4.264 -11.009,8.921 -19.607,17.518 -1.908,1.54 -4.101,7.973 -4.982,-0.348 l -9.241,-44.17 c -0.76,-2.774 -4.252,-13.985 -2.009,-18.663 6.344,-13.227 7.933,-17.084 9.08,-23.444 1.647,-4.552 4.884,-21.579 -16.071,-33.509 -8.564,-4.876 -23.456,-6.375 -28.688,-4.5 l -3.107,2.25 c 0.213,2.37 5.02,0.619 15.093,15.896 1.288,1.407 4.572,19.356 -12.214,16.521 -5.827,-1.22 -13.988,-9.771 -16.487,-17.31 -1.072,-3.236 -6.111,6.34 -4.071,18.321 -0.129,4.11 6.412,21.333 17.17,29.089 9.438,6.805 11.054,20.584 11.425,21.639 l 13.259,46.3 c -3.858,1.404 -21.356,7.932 -23.237,24.472 -10.074,3.151 -15.919,3.325 -23.223,0.161 -4.393,-7.514 -3.446,-3.059 -3.243,-31.957"
   id="path29" />
	<path
   style="fill:none;stroke:#ffffff;stroke-width:6;stroke-miterlimit:10"
   d="m 674.714,601.643 c 0,0 7.286,16.929 -3.214,31.714 -3.575,5.761 -10.61,16.24 -26.545,7.58 -13.775,-7.486 -11.343,-30.536 -11.343,-30.536"
   id="path31" />
	<path
   style="fill:none;stroke:#ffffff;stroke-width:6;stroke-miterlimit:10"
   d="m 607.122,605.5 c -0.145,-0.389 1.838,45.356 15.2,57.643 1.307,2.068 25.49,24.193 30.367,19.29 l 14.357,-18 c 3.335,-2.695 5.818,-10.915 5.312,-14.148 -0.602,-3.84 -1.265,-8.222 -1.941,-10.01 -0.343,-0.197 17.765,-11.744 29.263,1.224 0.759,0.857 1.391,3.499 1.286,3.134 0.331,-0.205 4.739,24.362 8.055,35.98"
   id="path33" />
	<path
   style="fill:none;stroke:#ffffff;stroke-width:6;stroke-miterlimit:10"
   d="m 597.223,685.777 c 0,0 32.356,14.273 54.865,-2.761"
   id="path35" />
	<path
   style="fill:none;stroke:#ffffff;stroke-width:6;stroke-miterlimit:10"
   d="m 672.271,647.849 c -0.238,-1.446 18.315,73.26 20.55,84.085"
   id="path37" />
	<path
   style="fill:none;stroke:#ffffff;stroke-width:6;stroke-miterlimit:10"
   d="m 519.679,717.786 c 0,0 -5.905,-60.423 -42.964,-31.393"
   id="path39" />
	<path
   style="fill:none;stroke:#ffffff;stroke-width:6;stroke-miterlimit:10"
   d="m 380.286,555.143 c 0,0 29.143,-33.721 62.143,-16.86 1.196,1.597 31.956,10.672 40.164,62.05 0.188,1.472 1.616,10.28 -4.391,19.524 -2.893,4.514 -4.898,47.406 5.316,59.786"
   id="path41" />
	<path
   style="fill:none;stroke:#ffffff;stroke-width:6;stroke-miterlimit:10"
   d="m 579.374,490.888 c 0,0 -27.231,4.683 -24.66,29.969 2.571,25.286 17.685,31.94 27.608,38.351 9.082,5.867 25.83,21.58 24.75,20.737"
   id="path43" />
	<path
   style="fill:#ffffff;stroke:#ffffff;stroke-width:6;stroke-miterlimit:10"
   d="m 649.612,642.464 c -5.971,5.144 -24.359,16.358 -28.747,18.18"
   id="path45" />
	<path
   style="fill:none;stroke:#ffffff;stroke-width:6;stroke-miterlimit:10"
   d="M 315.619,674.603"
   id="path47" />
	<path
   style="fill:none;stroke:#ffffff;stroke-width:6;stroke-miterlimit:10"
   d="M 404.614,721.056"
   id="path49" />
	<path
   style="fill:none;stroke:#ffffff;stroke-width:6;stroke-miterlimit:10"
   d="m 657.33,586.214 c 7.293,-2.88 33.589,-1.404 44.094,7.008"
   id="path51" />
	<path
   style="fill:#ffffff;stroke:#ffffff;stroke-width:0.5;stroke-miterlimit:10"
   d="m 595.897,688.05 c 0,0 -3.153,-3.87 2.196,-4.644 z"
   id="path53" />
	<path
   style="fill:#ffffff;stroke:#ffffff;stroke-width:0.5;stroke-miterlimit:10"
   d="m 672.222,602.837 c 0,0 0.212,-5.845 5.117,-2.149"
   id="path55" />
	
		<line
   style="fill:none;stroke:#ffffff;stroke-width:6;stroke-miterlimit:10"
   x1="625.82098"
   y1="658.06799"
   x2="625.82098"
   y2="663.78601"
   id="line57" />
</g>
<g
   id="linhas_pretas"
   transform="matrix(1.8309546,0,0,1.8309546,-364.97784,-595.11348)">
	<path
   style="fill:none;stroke:#000000;stroke-width:6;stroke-miterlimit:10"
   d="m 518.393,724.107 c -3.003,1.949 -4.867,27.043 -46.045,58.902 -2.182,2.479 -27.815,15.073 -41.223,17.92 -2.14,0.454 -24.893,2.768 -9.161,-15.429 17.112,-19.793 52.09,-75.03 48.984,-92.488 -0.439,-2.465 0.195,-7.358 -7.519,-6.614 -7.714,0.744 -23.195,-1.72 -29.526,-6.913 -6.331,-5.193 -2.267,6.016 -2.296,8.127 -0.131,9.628 -9.509,28.57 -12.425,36.455 -0.821,2.221 -1.03,3.273 -1.608,4.174 -3.779,5.887 -10.504,16.595 -39.958,4.667 -19.324,-12.03 -76.786,-45.384 -104.247,-92.706 0,0 -52.98,-71.989 -56.174,-109.275 -3.194,-37.286 -4.158,-116.679 88.413,-119.571 0,0 58.179,-10.286 103.821,20.571 0,0 35.036,-35.357 89.679,-28.929 0,0 31.587,-45.652 73.811,-57.54 0,0 12.819,0.695 23.747,37.337 0,0 11.084,42.703 9.477,61.667 -1.607,18.964 -8.514,68.795 4.665,80.045 0,0 26.835,46.598 1.764,60.74 0,0 -2.752,18.105 1.227,21.867 2.638,2.494 11.278,1.627 14.523,0 0.862,-0.432 2.43,-1.705 2.893,-2.551 3.474,-6.357 3.411,-14.174 19.706,-21.245 l -13.598,-46.607 c 0,0 -2.81,-9.333 -8.357,-13.286 -11.8,-8.409 -28.448,-40.344 -12.952,-56.464 4.892,-5.089 15.216,17.513 22.274,17.357 2.947,-0.065 8.487,-7.17 4.179,-11.732 -5.464,-5.786 -13.982,-14.946 -13.982,-14.946 -0.662,0.199 -3.241,-19.436 34.376,-5.57 33.039,12.178 24.827,45.348 17.856,55.391 -3.644,8.128 -5.316,7.633 -3.46,17.487 l 10.084,48.382 21.554,-17.976 c 0.407,-0.266 23.162,-23.216 10.702,13.022 -0.02,1.588 -8.908,16.272 -13.747,20.662 0,0 40.218,32.075 8.617,90.709 l 10.848,39.857 c 0.973,1.958 33.917,41.06 -7.87,50.812 -4.943,1.154 -36.052,8.382 -30.139,-40.286 -0.151,2.74 -26.869,38.198 -53.856,46.337 0,0 -62.662,18.993 -98.341,-17.971 -0.334,-0.277 -15.804,-14.12 -16.716,-34.389"
   id="path60" />
	<path
   style="fill:none;stroke:#000000;stroke-width:6;stroke-miterlimit:10"
   d="m 629.688,661.431 c -0.375,-3.804 13.111,-8.874 18.367,-12.224 6.383,0.398 14.321,-0.104 18.207,-3.66 1.711,-1.566 0.866,8.721 -0.654,12.024 -1.808,3.928 -15.911,19.995 -15.911,19.995 -5.426,-3.288 -19.551,-11.48 -20.009,-16.135 z"
   id="path62" />
	<path
   style="fill:none;stroke:#000000;stroke-width:3;stroke-miterlimit:10"
   d="m 688.747,730.683 c 0.273,-1.782 -0.899,-5.676 -3.932,1.058"
   id="path64" />
	<g
   id="Camada_7">
		<path
   style="stroke:#000000;stroke-width:2;stroke-miterlimit:10"
   d="m 520.643,723.297 c 0,0 -1.455,-4.226 -4.057,-1.079 -2.602,3.147 4.057,1.079 4.057,1.079 z"
   id="path66" />
	</g>
</g>
</svg>
